<svg width="712" height="685" viewBox="0 0 712 685" fill="none" xmlns="http://www.w3.org/2000/svg">
<g filter="url(#filter0_d_39_34)">
<g clip-path="url(#clip0_39_34)">
<rect x="112" y="31" width="1084.96" height="664.538" rx="8.47624" fill="white"/>
<rect x="112" y="75.9247" width="1084.96" height="619.613" fill="white"/>
<g filter="url(#filter1_di_39_34)">
<path d="M112 39.4763C112 34.795 115.795 31 120.476 31H1188.48C1193.16 31 1196.96 34.7949 1196.96 39.4762V75.9241H112V39.4763Z" fill="#242424"/>
<g clip-path="url(#clip1_39_34)">
<path d="M241.91 58.962L236.331 53.5162C236.197 53.3825 236.127 53.2207 236.127 53.0448C236.127 52.8618 236.204 52.6859 236.338 52.5734L241.91 47.1205C242.03 47.0009 242.185 46.9305 242.368 46.9305C242.734 46.9305 243.008 47.212 243.008 47.5778C243.008 47.7467 242.938 47.9156 242.825 48.0352L237.703 53.0448L242.825 58.0544C242.938 58.174 243.008 58.3358 243.008 58.5117C243.008 58.8776 242.734 59.152 242.368 59.152C242.185 59.152 242.03 59.0816 241.91 58.962Z" fill="#737373"/>
<path d="M264.739 59.159C264.922 59.159 265.077 59.0887 265.196 58.969L270.776 53.5162C270.909 53.3825 270.98 53.2207 270.98 53.0448C270.98 52.8618 270.909 52.693 270.776 52.5734L265.203 47.1275C265.077 47.0009 264.922 46.9305 264.739 46.9305C264.373 46.9305 264.099 47.212 264.099 47.5778C264.099 47.7467 264.169 47.9156 264.282 48.0352L269.404 53.0448L264.282 58.0544C264.169 58.174 264.099 58.3358 264.099 58.5117C264.099 58.8776 264.373 59.159 264.739 59.159Z" fill="#BFBFBF"/>
</g>
<path d="M197.881 59.5317H210.053C211.531 59.5317 212.263 58.7999 212.263 57.3505V48.7596C212.263 47.3102 211.531 46.5785 210.053 46.5785H197.881C196.411 46.5785 195.672 47.3032 195.672 48.7596V57.3505C195.672 58.807 196.411 59.5317 197.881 59.5317ZM197.895 58.3989C197.192 58.3989 196.805 58.026 196.805 57.2942V48.8159C196.805 48.0842 197.192 47.7113 197.895 47.7113H201.033V58.3989H197.895ZM210.039 47.7113C210.736 47.7113 211.13 48.0842 211.13 48.8159V57.2942C211.13 58.026 210.736 58.3989 210.039 58.3989H202.138V47.7113H210.039ZM199.675 50.3216C199.893 50.3216 200.076 50.1316 200.076 49.9276C200.076 49.7165 199.893 49.5336 199.675 49.5336H198.17C197.959 49.5336 197.769 49.7165 197.769 49.9276C197.769 50.1316 197.959 50.3216 198.17 50.3216H199.675ZM199.675 52.1439C199.893 52.1439 200.076 51.954 200.076 51.7429C200.076 51.5318 199.893 51.3559 199.675 51.3559H198.17C197.959 51.3559 197.769 51.5318 197.769 51.7429C197.769 51.954 197.959 52.1439 198.17 52.1439H199.675ZM199.675 53.9592C199.893 53.9592 200.076 53.7833 200.076 53.5722C200.076 53.3611 199.893 53.1782 199.675 53.1782H198.17C197.959 53.1782 197.769 53.3611 197.769 53.5722C197.769 53.7833 197.959 53.9592 198.17 53.9592H199.675Z" fill="#737373"/>
<g filter="url(#filter2_i_39_34)">
<path fill-rule="evenodd" clip-rule="evenodd" d="M134.886 58.1244C137.695 58.1244 139.972 55.8474 139.972 53.0386C139.972 50.2298 137.695 47.9529 134.886 47.9529C132.077 47.9529 129.8 50.2298 129.8 53.0386C129.8 55.8474 132.077 58.1244 134.886 58.1244Z" fill="#EE6A5F"/>
</g>
<path d="M139.76 53.0386C139.76 55.7304 137.578 57.9125 134.886 57.9125C132.194 57.9125 130.012 55.7304 130.012 53.0386C130.012 50.3469 132.194 48.1648 134.886 48.1648C137.578 48.1648 139.76 50.3469 139.76 53.0386Z" stroke="#CE5347" stroke-width="0.423812"/>
<g filter="url(#filter3_i_39_34)">
<path fill-rule="evenodd" clip-rule="evenodd" d="M151.838 58.1246C154.647 58.1246 156.924 55.8477 156.924 53.0389C156.924 50.2301 154.647 47.9531 151.838 47.9531C149.03 47.9531 146.753 50.2301 146.753 53.0389C146.753 55.8477 149.03 58.1246 151.838 58.1246Z" fill="#F5BD4F"/>
</g>
<path d="M156.712 53.0389C156.712 55.7306 154.53 57.9127 151.838 57.9127C149.147 57.9127 146.965 55.7306 146.965 53.0389C146.965 50.3471 149.147 48.165 151.838 48.165C154.53 48.165 156.712 50.3471 156.712 53.0389Z" stroke="#D6A243" stroke-width="0.423812"/>
<g filter="url(#filter4_i_39_34)">
<path fill-rule="evenodd" clip-rule="evenodd" d="M168.791 58.1246C171.6 58.1246 173.877 55.8477 173.877 53.0389C173.877 50.2301 171.6 47.9531 168.791 47.9531C165.982 47.9531 163.705 50.2301 163.705 53.0389C163.705 55.8477 165.982 58.1246 168.791 58.1246Z" fill="#61C454"/>
</g>
<path d="M173.665 53.0389C173.665 55.7306 171.483 57.9127 168.791 57.9127C166.099 57.9127 163.917 55.7306 163.917 53.0389C163.917 50.3471 166.099 48.165 168.791 48.165C171.483 48.165 173.665 50.3471 173.665 53.0389Z" stroke="#58A942" stroke-width="0.423812"/>
<g clip-path="url(#clip2_39_34)">
<path d="M414.178 60.3404C414.291 60.3404 414.474 60.2982 414.65 60.1997C418.653 57.9552 420.025 57.0054 420.025 54.4373V49.0548C420.025 48.316 419.709 48.0838 419.111 47.8305C418.28 47.4857 415.6 46.5218 414.769 46.2333C414.579 46.17 414.375 46.1278 414.178 46.1278C413.981 46.1278 413.777 46.1841 413.594 46.2333C412.764 46.4726 410.076 47.4928 409.246 47.8305C408.655 48.0768 408.332 48.316 408.332 49.0548V54.4373C408.332 57.0054 409.711 57.9482 413.707 60.1997C413.89 60.2982 414.066 60.3404 414.178 60.3404ZM414.46 47.3239C415.522 47.7461 417.584 48.4919 418.674 48.8648C418.864 48.9351 418.907 49.0337 418.907 49.2729V54.1769C418.907 56.351 417.865 56.9209 414.615 58.898C414.411 59.0247 414.298 59.0599 414.185 59.0669V47.2606C414.256 47.2606 414.347 47.2817 414.46 47.3239Z" fill="#737373"/>
<rect x="435.792" y="41.1719" width="437.374" height="23.7335" rx="5.08575" fill="black" fill-opacity="0.05"/>
<g clip-path="url(#clip3_39_34)">
<path d="M595.552 57.8835H600.28C600.921 57.8835 601.234 57.5656 601.234 56.8703V53.2248C601.234 52.5991 600.976 52.2762 600.444 52.2216V50.97C600.444 49.0976 599.218 48.1937 597.916 48.1937C596.615 48.1937 595.388 49.0976 595.388 50.97V52.2464C594.902 52.3209 594.599 52.6388 594.599 53.2248V56.8703C594.599 57.5656 594.912 57.8835 595.552 57.8835ZM596.188 50.8657C596.188 49.6191 596.988 48.9586 597.916 48.9586C598.845 48.9586 599.645 49.6191 599.645 50.8657V52.2166L596.188 52.2216V50.8657Z" fill="#9E9E9E"/>
<path d="M609.252 57.2581C609.435 57.2581 609.613 57.2366 609.796 57.2043V56.408C609.623 56.4242 609.532 56.4295 609.365 56.4295C608.763 56.4295 608.526 56.1551 608.526 55.4718V52.1898H609.796V51.415H608.526V49.9138H607.557V51.415H606.643V52.1898H607.557V55.7086C607.557 56.8169 608.058 57.2581 609.252 57.2581ZM611.204 57.2151H612.14V53.7824C612.14 52.7655 612.727 52.1413 613.652 52.1413C614.578 52.1413 615.008 52.6417 615.008 53.6855V57.2151H615.944V53.4595C615.944 52.0822 615.218 51.3128 613.916 51.3128C613.06 51.3128 612.517 51.6732 612.227 52.2866H612.14V49.1122H611.204V57.2151ZM619.963 57.3173C621.329 57.3173 622.158 56.5425 622.357 55.757L622.368 55.7139H621.431L621.41 55.7624C621.254 56.1121 620.77 56.4833 619.984 56.4833C618.951 56.4833 618.289 55.7839 618.262 54.5841H622.438V54.2182C622.438 52.4857 621.48 51.3128 619.903 51.3128C618.327 51.3128 617.305 52.5395 617.305 54.3312V54.3366C617.305 56.1551 618.305 57.3173 619.963 57.3173ZM619.898 52.1467C620.753 52.1467 621.388 52.6901 621.485 53.8362H618.278C618.381 52.7332 619.037 52.1467 619.898 52.1467ZM625.988 57.3173C626.795 57.3173 627.44 56.9353 627.795 56.2897H627.881V57.2151H628.818V49.1122H627.881V52.3297H627.795C627.478 51.7109 626.784 51.3128 625.988 51.3128C624.513 51.3128 623.556 52.4911 623.556 54.3097V54.3204C623.556 56.1282 624.519 57.3173 625.988 57.3173ZM626.203 56.4887C625.143 56.4887 624.513 55.6709 624.513 54.3204V54.3097C624.513 52.9592 625.143 52.1413 626.203 52.1413C627.257 52.1413 627.903 52.9699 627.903 54.3097V54.3204C627.903 55.6601 627.257 56.4887 626.203 56.4887ZM632.938 57.3173C634.305 57.3173 635.133 56.5425 635.332 55.757L635.343 55.7139H634.407L634.385 55.7624C634.229 56.1121 633.745 56.4833 632.96 56.4833C631.927 56.4833 631.265 55.7839 631.238 54.5841H635.413V54.2182C635.413 52.4857 634.455 51.3128 632.879 51.3128C631.302 51.3128 630.28 52.5395 630.28 54.3312V54.3366C630.28 56.1551 631.281 57.3173 632.938 57.3173ZM632.873 52.1467C633.729 52.1467 634.364 52.6901 634.461 53.8362H631.254C631.356 52.7332 632.013 52.1467 632.873 52.1467ZM638.812 57.3173C640.131 57.3173 641.137 56.6017 641.137 55.5687V55.5579C641.137 54.7293 640.61 54.2559 639.517 53.9922L638.624 53.777C637.941 53.6102 637.65 53.3627 637.65 52.9699V52.9592C637.65 52.448 638.156 52.0929 638.845 52.0929C639.544 52.0929 639.996 52.4104 640.12 52.8677H641.04C640.911 51.9207 640.066 51.3128 638.85 51.3128C637.618 51.3128 636.693 52.0391 636.693 53.0022V53.0076C636.693 53.8416 637.182 54.315 638.269 54.5733L639.168 54.7885C639.883 54.9607 640.179 55.2351 640.179 55.6279V55.6386C640.179 56.1659 639.625 56.5372 638.845 56.5372C638.102 56.5372 637.64 56.2197 637.483 55.7355H636.526C636.633 56.6932 637.521 57.3173 638.812 57.3173ZM643.04 50.2959C643.396 50.2959 643.686 50.0053 643.686 49.6502C643.686 49.2951 643.396 49.0046 643.04 49.0046C642.685 49.0046 642.395 49.2951 642.395 49.6502C642.395 50.0053 642.685 50.2959 643.04 50.2959ZM642.567 57.2151H643.503V51.415H642.567V57.2151ZM647.613 59.2597C649.195 59.2597 650.195 58.4311 650.195 57.1344V51.415H649.259V52.3727H649.195C648.839 51.7163 648.205 51.3128 647.387 51.3128C645.87 51.3128 644.933 52.4911 644.933 54.116V54.1267C644.933 55.7516 645.864 56.9138 647.365 56.9138C648.162 56.9138 648.818 56.5533 649.184 55.913H649.27V57.086C649.27 57.9414 648.651 58.4311 647.613 58.4311C646.779 58.4311 646.262 58.119 646.16 57.6778L646.155 57.6724H645.186L645.175 57.6778C645.321 58.6301 646.214 59.2597 647.613 59.2597ZM647.57 56.0852C646.494 56.0852 645.891 55.2781 645.891 54.1267V54.116C645.891 52.9645 646.494 52.1413 647.57 52.1413C648.64 52.1413 649.291 52.9645 649.291 54.116V54.1267C649.291 55.2781 648.646 56.0852 647.57 56.0852ZM651.895 57.2151H652.831V53.7824C652.831 52.7655 653.417 52.1413 654.343 52.1413C655.268 52.1413 655.699 52.6417 655.699 53.6855V57.2151H656.635V53.4595C656.635 52.0822 655.908 51.3128 654.606 51.3128C653.751 51.3128 653.207 51.6732 652.917 52.2866H652.831V51.415H651.895V57.2151ZM660.653 57.3173C662.019 57.3173 662.848 56.5425 663.047 55.757L663.058 55.7139H662.122L662.1 55.7624C661.944 56.1121 661.46 56.4833 660.674 56.4833C659.641 56.4833 658.98 55.7839 658.953 54.5841H663.128V54.2182C663.128 52.4857 662.17 51.3128 660.594 51.3128C659.017 51.3128 657.995 52.5395 657.995 54.3312V54.3366C657.995 56.1551 658.996 57.3173 660.653 57.3173ZM660.588 52.1467C661.444 52.1467 662.079 52.6901 662.176 53.8362H658.969C659.071 52.7332 659.727 52.1467 660.588 52.1467ZM664.536 57.2151H665.473V53.621C665.473 52.7709 666.108 52.2059 667.001 52.2059C667.205 52.2059 667.383 52.2274 667.576 52.2597V51.3504C667.485 51.3343 667.286 51.3128 667.108 51.3128C666.323 51.3128 665.779 51.6679 665.559 52.2759H665.473V51.415H664.536V57.2151ZM670.572 57.3173C671.891 57.3173 672.897 56.6017 672.897 55.5687V55.5579C672.897 54.7293 672.369 54.2559 671.277 53.9922L670.384 53.777C669.701 53.6102 669.41 53.3627 669.41 52.9699V52.9592C669.41 52.448 669.916 52.0929 670.605 52.0929C671.304 52.0929 671.756 52.4104 671.88 52.8677H672.8C672.671 51.9207 671.826 51.3128 670.61 51.3128C669.378 51.3128 668.452 52.0391 668.452 53.0022V53.0076C668.452 53.8416 668.942 54.315 670.029 54.5733L670.927 54.7885C671.643 54.9607 671.939 55.2351 671.939 55.6279V55.6386C671.939 56.1659 671.385 56.5372 670.605 56.5372C669.862 56.5372 669.399 56.2197 669.243 55.7355H668.286C668.393 56.6932 669.281 57.3173 670.572 57.3173ZM674.359 57.2151H675.295V53.7824C675.295 52.7655 675.882 52.1413 676.807 52.1413C677.733 52.1413 678.163 52.6417 678.163 53.6855V57.2151H679.099V53.4595C679.099 52.0822 678.373 51.3128 677.071 51.3128C676.215 51.3128 675.672 51.6732 675.381 52.2866H675.295V49.1122H674.359V57.2151ZM681.245 50.2959C681.6 50.2959 681.891 50.0053 681.891 49.6502C681.891 49.2951 681.6 49.0046 681.245 49.0046C680.89 49.0046 680.599 49.2951 680.599 49.6502C680.599 50.0053 680.89 50.2959 681.245 50.2959ZM680.772 57.2151H681.708V51.415H680.772V57.2151ZM683.428 59.152H684.365V56.3004H684.451C684.768 56.9192 685.462 57.3173 686.259 57.3173C687.733 57.3173 688.69 56.139 688.69 54.3204V54.3097C688.69 52.5018 687.727 51.3128 686.259 51.3128C685.451 51.3128 684.806 51.6948 684.451 52.3404H684.365V51.415H683.428V59.152ZM686.043 56.4887C684.989 56.4887 684.343 55.6601 684.343 54.3204V54.3097C684.343 52.9699 684.989 52.1413 686.043 52.1413C687.103 52.1413 687.733 52.9592 687.733 54.3097V54.3204C687.733 55.6709 687.103 56.4887 686.043 56.4887ZM690.766 57.2689C691.154 57.2689 691.466 56.9514 691.466 56.5694C691.466 56.182 691.154 55.87 690.766 55.87C690.384 55.87 690.067 56.182 690.067 56.5694C690.067 56.9514 690.384 57.2689 690.766 57.2689ZM695.387 57.3173C696.781 57.3173 697.561 56.5694 697.797 55.5203L697.808 55.4611L696.883 55.4664L696.872 55.4987C696.657 56.1444 696.162 56.4887 695.382 56.4887C694.349 56.4887 693.681 55.6332 693.681 54.2989V54.2881C693.681 52.9807 694.338 52.1413 695.382 52.1413C696.216 52.1413 696.732 52.6041 696.877 53.1744L696.883 53.1905H697.814L697.808 53.1582C697.636 52.1252 696.791 51.3128 695.382 51.3128C693.757 51.3128 692.724 52.4857 692.724 54.2881V54.2989C692.724 56.139 693.762 57.3173 695.387 57.3173ZM701.52 57.3173C703.171 57.3173 704.194 56.1767 704.194 54.3204V54.3097C704.194 52.448 703.171 51.3128 701.52 51.3128C699.868 51.3128 698.846 52.448 698.846 54.3097V54.3204C698.846 56.1767 699.868 57.3173 701.52 57.3173ZM701.52 56.4887C700.422 56.4887 699.803 55.687 699.803 54.3204V54.3097C699.803 52.9376 700.422 52.1413 701.52 52.1413C702.617 52.1413 703.236 52.9376 703.236 54.3097V54.3204C703.236 55.687 702.617 56.4887 701.52 56.4887ZM705.602 57.2151H706.539V53.621C706.539 52.8031 707.114 52.1413 707.873 52.1413C708.605 52.1413 709.078 52.5879 709.078 53.2766V57.2151H710.014V53.4865C710.014 52.7493 710.547 52.1413 711.354 52.1413C712.172 52.1413 712.565 52.5664 712.565 53.4219V57.2151H713.501V53.2067C713.501 51.9907 712.839 51.3128 711.655 51.3128C710.854 51.3128 710.192 51.7163 709.88 52.3297H709.794C709.525 51.7271 708.976 51.3128 708.19 51.3128C707.432 51.3128 706.883 51.6732 706.625 52.2974H706.539V51.415H705.602V57.2151Z" fill="#4C4C4C"/>
</g>
</g>
</g>
</g>
</g>
<path d="M3.31166 277.135C3.31166 254.417 21.7286 236 44.4471 236H235.719C258.437 236 276.854 254.417 276.854 277.135V360.187V360.187C278.866 360.187 280.497 361.818 280.497 363.83V408.868C280.497 410.88 278.866 412.511 276.854 412.511V412.511V756.521C276.854 779.24 258.437 797.657 235.719 797.657H44.4471C21.7286 797.657 3.31166 779.24 3.31166 756.521V436.024V436.024C1.49418 436.024 0 434.551 0 432.733V394.939C0 393.121 1.49418 391.648 3.31166 391.648V391.648V383.369V383.369C1.49418 383.369 0 381.895 0 380.078V340.959C0 339.141 1.49418 337.668 3.31166 337.668V337.668V277.135Z" fill="#242424"/>
<path d="M67.5578 247.922H37.0906C25.3851 247.922 15.896 257.411 15.896 269.116V764.54C15.896 776.246 25.3851 785.735 37.0906 785.735H243.076C254.781 785.735 264.27 776.246 264.27 764.54V269.116C264.27 257.411 254.781 247.922 243.076 247.922H213.271V251.234C213.271 258.549 207.34 264.48 200.024 264.48H80.8044C73.4885 264.48 67.5578 258.549 67.5578 251.234V247.922Z" fill="white"/>
<rect opacity="0.4" x="114.583" y="247.922" width="56.9605" height="5.29865" rx="2.64932" fill="#CCCCCC"/>
<rect opacity="0.5" x="180.816" y="244.61" width="11.922" height="11.922" rx="5.96098" fill="#DDDDDD"/>
<rect opacity="0.5" x="183.466" y="247.26" width="6.62331" height="6.62331" rx="3.31166" fill="white"/>
<rect opacity="0.5" x="82.7913" y="247.922" width="5.29865" height="5.29865" rx="2.64932" fill="#CCCCCC"/>
<defs>
<filter id="filter0_d_39_34" x="76.7863" y="0.21631" width="1155.39" height="734.965" filterUnits="userSpaceOnUse" color-interpolation-filters="sRGB">
<feFlood flood-opacity="0" result="BackgroundImageFix"/>
<feColorMatrix in="SourceAlpha" type="matrix" values="0 0 0 0 0 0 0 0 0 0 0 0 0 0 0 0 0 0 127 0" result="hardAlpha"/>
<feMorphology radius="21.65" operator="erode" in="SourceAlpha" result="effect1_dropShadow_39_34"/>
<feOffset dy="4.43"/>
<feGaussianBlur stdDeviation="28.4318"/>
<feColorMatrix type="matrix" values="0 0 0 0 0 0 0 0 0 0 0 0 0 0 0 0 0 0 0.25 0"/>
<feBlend mode="normal" in2="BackgroundImageFix" result="effect1_dropShadow_39_34"/>
<feBlend mode="normal" in="SourceGraphic" in2="effect1_dropShadow_39_34" result="shape"/>
</filter>
<filter id="filter1_di_39_34" x="112" y="31" width="1084.96" height="45.3479" filterUnits="userSpaceOnUse" color-interpolation-filters="sRGB">
<feFlood flood-opacity="0" result="BackgroundImageFix"/>
<feColorMatrix in="SourceAlpha" type="matrix" values="0 0 0 0 0 0 0 0 0 0 0 0 0 0 0 0 0 0 127 0" result="hardAlpha"/>
<feOffset dy="0.423812"/>
<feColorMatrix type="matrix" values="0 0 0 0 0 0 0 0 0 0 0 0 0 0 0 0 0 0 0.15 0"/>
<feBlend mode="normal" in2="BackgroundImageFix" result="effect1_dropShadow_39_34"/>
<feBlend mode="normal" in="SourceGraphic" in2="effect1_dropShadow_39_34" result="shape"/>
<feColorMatrix in="SourceAlpha" type="matrix" values="0 0 0 0 0 0 0 0 0 0 0 0 0 0 0 0 0 0 127 0" result="hardAlpha"/>
<feOffset dy="-0.423812"/>
<feComposite in2="hardAlpha" operator="arithmetic" k2="-1" k3="1"/>
<feColorMatrix type="matrix" values="0 0 0 0 0 0 0 0 0 0 0 0 0 0 0 0 0 0 0.05 0"/>
<feBlend mode="normal" in2="shape" result="effect2_innerShadow_39_34"/>
</filter>
<filter id="filter2_i_39_34" x="129.8" y="47.9529" width="10.1714" height="10.1715" filterUnits="userSpaceOnUse" color-interpolation-filters="sRGB">
<feFlood flood-opacity="0" result="BackgroundImageFix"/>
<feBlend mode="normal" in="SourceGraphic" in2="BackgroundImageFix" result="shape"/>
<feColorMatrix in="SourceAlpha" type="matrix" values="0 0 0 0 0 0 0 0 0 0 0 0 0 0 0 0 0 0 127 0" result="hardAlpha"/>
<feOffset/>
<feGaussianBlur stdDeviation="2.54287"/>
<feComposite in2="hardAlpha" operator="arithmetic" k2="-1" k3="1"/>
<feColorMatrix type="matrix" values="0 0 0 0 0.92549 0 0 0 0 0.427451 0 0 0 0 0.384314 0 0 0 1 0"/>
<feBlend mode="normal" in2="shape" result="effect1_innerShadow_39_34"/>
</filter>
<filter id="filter3_i_39_34" x="146.753" y="47.9531" width="10.1714" height="10.1715" filterUnits="userSpaceOnUse" color-interpolation-filters="sRGB">
<feFlood flood-opacity="0" result="BackgroundImageFix"/>
<feBlend mode="normal" in="SourceGraphic" in2="BackgroundImageFix" result="shape"/>
<feColorMatrix in="SourceAlpha" type="matrix" values="0 0 0 0 0 0 0 0 0 0 0 0 0 0 0 0 0 0 127 0" result="hardAlpha"/>
<feOffset/>
<feGaussianBlur stdDeviation="2.54287"/>
<feComposite in2="hardAlpha" operator="arithmetic" k2="-1" k3="1"/>
<feColorMatrix type="matrix" values="0 0 0 0 0.960784 0 0 0 0 0.768627 0 0 0 0 0.317647 0 0 0 1 0"/>
<feBlend mode="normal" in2="shape" result="effect1_innerShadow_39_34"/>
</filter>
<filter id="filter4_i_39_34" x="163.705" y="47.9531" width="10.1714" height="10.1715" filterUnits="userSpaceOnUse" color-interpolation-filters="sRGB">
<feFlood flood-opacity="0" result="BackgroundImageFix"/>
<feBlend mode="normal" in="SourceGraphic" in2="BackgroundImageFix" result="shape"/>
<feColorMatrix in="SourceAlpha" type="matrix" values="0 0 0 0 0 0 0 0 0 0 0 0 0 0 0 0 0 0 127 0" result="hardAlpha"/>
<feOffset/>
<feGaussianBlur stdDeviation="2.54287"/>
<feComposite in2="hardAlpha" operator="arithmetic" k2="-1" k3="1"/>
<feColorMatrix type="matrix" values="0 0 0 0 0.407843 0 0 0 0 0.8 0 0 0 0 0.345098 0 0 0 1 0"/>
<feBlend mode="normal" in2="shape" result="effect1_innerShadow_39_34"/>
</filter>
<clipPath id="clip0_39_34">
<rect x="112" y="31" width="1084.96" height="664.538" rx="8.47624" fill="white"/>
</clipPath>
<clipPath id="clip1_39_34">
<rect width="55.9432" height="23.7335" fill="white" transform="translate(225.582 41.1719)"/>
</clipPath>
<clipPath id="clip2_39_34">
<rect width="508.575" height="23.7335" fill="white" transform="translate(400.192 41.1719)"/>
</clipPath>
<clipPath id="clip3_39_34">
<rect x="594.599" y="46.215" width="119.762" height="13.6473" fill="white"/>
</clipPath>
</defs>
</svg>
