<svg width="819" height="669" viewBox="0 0 819 669" fill="none" xmlns="http://www.w3.org/2000/svg">
<g filter="url(#filter0_d_19_40)">
<g clip-path="url(#clip0_19_40)">
<rect x="219" y="15" width="1084.96" height="664.538" rx="8.47624" fill="white"/>
<rect x="219" y="59.9247" width="1084.96" height="619.613" fill="white"/>
<g filter="url(#filter1_di_19_40)">
<path d="M219 23.4763C219 18.795 222.795 15 227.476 15H1295.48C1300.16 15 1303.96 18.7949 1303.96 23.4762V59.9241H219V23.4763Z" fill="white"/>
<g clip-path="url(#clip1_19_40)">
<path d="M348.91 42.962L343.331 37.5162C343.197 37.3825 343.127 37.2207 343.127 37.0448C343.127 36.8618 343.204 36.6859 343.338 36.5734L348.91 31.1205C349.03 31.0009 349.185 30.9305 349.368 30.9305C349.734 30.9305 350.008 31.212 350.008 31.5778C350.008 31.7467 349.938 31.9156 349.825 32.0352L344.703 37.0448L349.825 42.0544C349.938 42.174 350.008 42.3358 350.008 42.5117C350.008 42.8776 349.734 43.152 349.368 43.152C349.185 43.152 349.03 43.0816 348.91 42.962Z" fill="#737373"/>
<path d="M371.739 43.159C371.922 43.159 372.077 43.0887 372.196 42.969L377.776 37.5162C377.909 37.3825 377.98 37.2207 377.98 37.0448C377.98 36.8618 377.909 36.693 377.776 36.5734L372.203 31.1275C372.077 31.0009 371.922 30.9305 371.739 30.9305C371.373 30.9305 371.099 31.212 371.099 31.5778C371.099 31.7467 371.169 31.9156 371.282 32.0352L376.404 37.0448L371.282 42.0544C371.169 42.174 371.099 42.3358 371.099 42.5117C371.099 42.8776 371.373 43.159 371.739 43.159Z" fill="#BFBFBF"/>
</g>
<path d="M304.881 43.5317H317.053C318.531 43.5317 319.263 42.7999 319.263 41.3505V32.7596C319.263 31.3102 318.531 30.5785 317.053 30.5785H304.881C303.411 30.5785 302.672 31.3032 302.672 32.7596V41.3505C302.672 42.807 303.411 43.5317 304.881 43.5317ZM304.895 42.3989C304.192 42.3989 303.805 42.026 303.805 41.2942V32.8159C303.805 32.0842 304.192 31.7113 304.895 31.7113H308.033V42.3989H304.895ZM317.039 31.7113C317.736 31.7113 318.13 32.0842 318.13 32.8159V41.2942C318.13 42.026 317.736 42.3989 317.039 42.3989H309.138V31.7113H317.039ZM306.675 34.3216C306.893 34.3216 307.076 34.1316 307.076 33.9276C307.076 33.7165 306.893 33.5336 306.675 33.5336H305.17C304.959 33.5336 304.769 33.7165 304.769 33.9276C304.769 34.1316 304.959 34.3216 305.17 34.3216H306.675ZM306.675 36.1439C306.893 36.1439 307.076 35.954 307.076 35.7429C307.076 35.5318 306.893 35.3559 306.675 35.3559H305.17C304.959 35.3559 304.769 35.5318 304.769 35.7429C304.769 35.954 304.959 36.1439 305.17 36.1439H306.675ZM306.675 37.9592C306.893 37.9592 307.076 37.7833 307.076 37.5722C307.076 37.3611 306.893 37.1782 306.675 37.1782H305.17C304.959 37.1782 304.769 37.3611 304.769 37.5722C304.769 37.7833 304.959 37.9592 305.17 37.9592H306.675Z" fill="#737373"/>
<g filter="url(#filter2_i_19_40)">
<path fill-rule="evenodd" clip-rule="evenodd" d="M241.886 42.1244C244.695 42.1244 246.972 39.8474 246.972 37.0386C246.972 34.2298 244.695 31.9529 241.886 31.9529C239.077 31.9529 236.8 34.2298 236.8 37.0386C236.8 39.8474 239.077 42.1244 241.886 42.1244Z" fill="#EE6A5F"/>
</g>
<path d="M246.76 37.0386C246.76 39.7304 244.578 41.9125 241.886 41.9125C239.194 41.9125 237.012 39.7304 237.012 37.0386C237.012 34.3469 239.194 32.1648 241.886 32.1648C244.578 32.1648 246.76 34.3469 246.76 37.0386Z" stroke="#CE5347" stroke-width="0.423812"/>
<g filter="url(#filter3_i_19_40)">
<path fill-rule="evenodd" clip-rule="evenodd" d="M258.838 42.1246C261.647 42.1246 263.924 39.8477 263.924 37.0389C263.924 34.2301 261.647 31.9531 258.838 31.9531C256.03 31.9531 253.753 34.2301 253.753 37.0389C253.753 39.8477 256.03 42.1246 258.838 42.1246Z" fill="#F5BD4F"/>
</g>
<path d="M263.712 37.0389C263.712 39.7306 261.53 41.9127 258.838 41.9127C256.147 41.9127 253.965 39.7306 253.965 37.0389C253.965 34.3471 256.147 32.165 258.838 32.165C261.53 32.165 263.712 34.3471 263.712 37.0389Z" stroke="#D6A243" stroke-width="0.423812"/>
<g filter="url(#filter4_i_19_40)">
<path fill-rule="evenodd" clip-rule="evenodd" d="M275.791 42.1246C278.6 42.1246 280.877 39.8477 280.877 37.0389C280.877 34.2301 278.6 31.9531 275.791 31.9531C272.982 31.9531 270.705 34.2301 270.705 37.0389C270.705 39.8477 272.982 42.1246 275.791 42.1246Z" fill="#61C454"/>
</g>
<path d="M280.665 37.0389C280.665 39.7306 278.483 41.9127 275.791 41.9127C273.099 41.9127 270.917 39.7306 270.917 37.0389C270.917 34.3471 273.099 32.165 275.791 32.165C278.483 32.165 280.665 34.3471 280.665 37.0389Z" stroke="#58A942" stroke-width="0.423812"/>
<g clip-path="url(#clip2_19_40)">
<path d="M521.178 44.3404C521.291 44.3404 521.474 44.2982 521.65 44.1997C525.653 41.9552 527.025 41.0054 527.025 38.4373V33.0548C527.025 32.316 526.708 32.0838 526.11 31.8305C525.28 31.4857 522.599 30.5218 521.769 30.2333C521.579 30.17 521.375 30.1278 521.178 30.1278C520.981 30.1278 520.777 30.1841 520.594 30.2333C519.764 30.4726 517.076 31.4928 516.246 31.8305C515.655 32.0768 515.331 32.316 515.331 33.0548V38.4373C515.331 41.0054 516.71 41.9482 520.707 44.1997C520.89 44.2982 521.066 44.3404 521.178 44.3404ZM521.46 31.3239C522.522 31.7461 524.584 32.4919 525.674 32.8648C525.864 32.9351 525.906 33.0337 525.906 33.2729V38.1769C525.906 40.351 524.865 40.9209 521.614 42.898C521.41 43.0247 521.298 43.0599 521.185 43.0669V31.2606C521.256 31.2606 521.347 31.2817 521.46 31.3239Z" fill="#737373"/>
<rect x="542.792" y="25.1719" width="437.374" height="23.7335" rx="5.08575" fill="black" fill-opacity="0.05"/>
<g clip-path="url(#clip3_19_40)">
<path d="M702.552 41.8835H707.28C707.921 41.8835 708.234 41.5656 708.234 40.8703V37.2248C708.234 36.5991 707.976 36.2762 707.444 36.2216V34.97C707.444 33.0976 706.218 32.1937 704.916 32.1937C703.615 32.1937 702.388 33.0976 702.388 34.97V36.2464C701.902 36.3209 701.599 36.6388 701.599 37.2248V40.8703C701.599 41.5656 701.912 41.8835 702.552 41.8835ZM703.188 34.8657C703.188 33.6191 703.988 32.9586 704.916 32.9586C705.845 32.9586 706.645 33.6191 706.645 34.8657V36.2166L703.188 36.2216V34.8657Z" fill="#9E9E9E"/>
<path d="M716.252 41.2581C716.435 41.2581 716.613 41.2366 716.796 41.2043V40.408C716.623 40.4242 716.532 40.4295 716.365 40.4295C715.763 40.4295 715.526 40.1551 715.526 39.4718V36.1898H716.796V35.415H715.526V33.9138H714.557V35.415H713.643V36.1898H714.557V39.7086C714.557 40.8169 715.058 41.2581 716.252 41.2581ZM718.204 41.2151H719.14V37.7824C719.14 36.7655 719.727 36.1413 720.652 36.1413C721.578 36.1413 722.008 36.6417 722.008 37.6855V41.2151H722.944V37.4595C722.944 36.0822 722.218 35.3128 720.916 35.3128C720.06 35.3128 719.517 35.6732 719.227 36.2866H719.14V33.1122H718.204V41.2151ZM726.963 41.3173C728.329 41.3173 729.158 40.5425 729.357 39.757L729.368 39.7139H728.431L728.41 39.7624C728.254 40.1121 727.77 40.4833 726.984 40.4833C725.951 40.4833 725.289 39.7839 725.262 38.5841H729.438V38.2182C729.438 36.4857 728.48 35.3128 726.903 35.3128C725.327 35.3128 724.305 36.5395 724.305 38.3312V38.3366C724.305 40.1551 725.305 41.3173 726.963 41.3173ZM726.898 36.1467C727.753 36.1467 728.388 36.6901 728.485 37.8362H725.278C725.381 36.7332 726.037 36.1467 726.898 36.1467ZM732.988 41.3173C733.795 41.3173 734.44 40.9353 734.795 40.2897H734.881V41.2151H735.818V33.1122H734.881V36.3297H734.795C734.478 35.7109 733.784 35.3128 732.988 35.3128C731.513 35.3128 730.556 36.4911 730.556 38.3097V38.3204C730.556 40.1282 731.519 41.3173 732.988 41.3173ZM733.203 40.4887C732.143 40.4887 731.513 39.6709 731.513 38.3204V38.3097C731.513 36.9592 732.143 36.1413 733.203 36.1413C734.257 36.1413 734.903 36.9699 734.903 38.3097V38.3204C734.903 39.6601 734.257 40.4887 733.203 40.4887ZM739.938 41.3173C741.305 41.3173 742.133 40.5425 742.332 39.757L742.343 39.7139H741.407L741.385 39.7624C741.229 40.1121 740.745 40.4833 739.96 40.4833C738.927 40.4833 738.265 39.7839 738.238 38.5841H742.413V38.2182C742.413 36.4857 741.455 35.3128 739.879 35.3128C738.302 35.3128 737.28 36.5395 737.28 38.3312V38.3366C737.28 40.1551 738.281 41.3173 739.938 41.3173ZM739.873 36.1467C740.729 36.1467 741.364 36.6901 741.461 37.8362H738.254C738.356 36.7332 739.013 36.1467 739.873 36.1467ZM745.812 41.3173C747.131 41.3173 748.137 40.6017 748.137 39.5687V39.5579C748.137 38.7293 747.61 38.2559 746.517 37.9922L745.624 37.777C744.941 37.6102 744.65 37.3627 744.65 36.9699V36.9592C744.65 36.448 745.156 36.0929 745.845 36.0929C746.544 36.0929 746.996 36.4104 747.12 36.8677H748.04C747.911 35.9207 747.066 35.3128 745.85 35.3128C744.618 35.3128 743.693 36.0391 743.693 37.0022V37.0076C743.693 37.8416 744.182 38.315 745.269 38.5733L746.168 38.7885C746.883 38.9607 747.179 39.2351 747.179 39.6279V39.6386C747.179 40.1659 746.625 40.5372 745.845 40.5372C745.102 40.5372 744.64 40.2197 744.483 39.7355H743.526C743.633 40.6932 744.521 41.3173 745.812 41.3173ZM750.04 34.2959C750.396 34.2959 750.686 34.0053 750.686 33.6502C750.686 33.2951 750.396 33.0046 750.04 33.0046C749.685 33.0046 749.395 33.2951 749.395 33.6502C749.395 34.0053 749.685 34.2959 750.04 34.2959ZM749.567 41.2151H750.503V35.415H749.567V41.2151ZM754.613 43.2597C756.195 43.2597 757.195 42.4311 757.195 41.1344V35.415H756.259V36.3727H756.195C755.839 35.7163 755.205 35.3128 754.387 35.3128C752.87 35.3128 751.933 36.4911 751.933 38.116V38.1267C751.933 39.7516 752.864 40.9138 754.365 40.9138C755.162 40.9138 755.818 40.5533 756.184 39.913H756.27V41.086C756.27 41.9414 755.651 42.4311 754.613 42.4311C753.779 42.4311 753.262 42.119 753.16 41.6778L753.155 41.6724H752.186L752.175 41.6778C752.321 42.6301 753.214 43.2597 754.613 43.2597ZM754.57 40.0852C753.494 40.0852 752.891 39.2781 752.891 38.1267V38.116C752.891 36.9645 753.494 36.1413 754.57 36.1413C755.64 36.1413 756.291 36.9645 756.291 38.116V38.1267C756.291 39.2781 755.646 40.0852 754.57 40.0852ZM758.895 41.2151H759.831V37.7824C759.831 36.7655 760.417 36.1413 761.343 36.1413C762.268 36.1413 762.699 36.6417 762.699 37.6855V41.2151H763.635V37.4595C763.635 36.0822 762.908 35.3128 761.606 35.3128C760.751 35.3128 760.207 35.6732 759.917 36.2866H759.831V35.415H758.895V41.2151ZM767.653 41.3173C769.019 41.3173 769.848 40.5425 770.047 39.757L770.058 39.7139H769.122L769.1 39.7624C768.944 40.1121 768.46 40.4833 767.674 40.4833C766.641 40.4833 765.98 39.7839 765.953 38.5841H770.128V38.2182C770.128 36.4857 769.17 35.3128 767.594 35.3128C766.017 35.3128 764.995 36.5395 764.995 38.3312V38.3366C764.995 40.1551 765.996 41.3173 767.653 41.3173ZM767.588 36.1467C768.444 36.1467 769.079 36.6901 769.176 37.8362H765.969C766.071 36.7332 766.727 36.1467 767.588 36.1467ZM771.536 41.2151H772.473V37.621C772.473 36.7709 773.108 36.2059 774.001 36.2059C774.205 36.2059 774.383 36.2274 774.576 36.2597V35.3504C774.485 35.3343 774.286 35.3128 774.108 35.3128C773.323 35.3128 772.779 35.6679 772.559 36.2759H772.473V35.415H771.536V41.2151ZM777.572 41.3173C778.891 41.3173 779.897 40.6017 779.897 39.5687V39.5579C779.897 38.7293 779.369 38.2559 778.277 37.9922L777.384 37.777C776.701 37.6102 776.41 37.3627 776.41 36.9699V36.9592C776.41 36.448 776.916 36.0929 777.605 36.0929C778.304 36.0929 778.756 36.4104 778.88 36.8677H779.8C779.671 35.9207 778.826 35.3128 777.61 35.3128C776.378 35.3128 775.452 36.0391 775.452 37.0022V37.0076C775.452 37.8416 775.942 38.315 777.029 38.5733L777.927 38.7885C778.643 38.9607 778.939 39.2351 778.939 39.6279V39.6386C778.939 40.1659 778.385 40.5372 777.605 40.5372C776.862 40.5372 776.399 40.2197 776.243 39.7355H775.286C775.393 40.6932 776.281 41.3173 777.572 41.3173ZM781.359 41.2151H782.295V37.7824C782.295 36.7655 782.882 36.1413 783.807 36.1413C784.733 36.1413 785.163 36.6417 785.163 37.6855V41.2151H786.099V37.4595C786.099 36.0822 785.373 35.3128 784.071 35.3128C783.215 35.3128 782.672 35.6732 782.381 36.2866H782.295V33.1122H781.359V41.2151ZM788.245 34.2959C788.6 34.2959 788.891 34.0053 788.891 33.6502C788.891 33.2951 788.6 33.0046 788.245 33.0046C787.89 33.0046 787.599 33.2951 787.599 33.6502C787.599 34.0053 787.89 34.2959 788.245 34.2959ZM787.772 41.2151H788.708V35.415H787.772V41.2151ZM790.428 43.152H791.365V40.3004H791.451C791.768 40.9192 792.462 41.3173 793.259 41.3173C794.733 41.3173 795.69 40.139 795.69 38.3204V38.3097C795.69 36.5018 794.727 35.3128 793.259 35.3128C792.451 35.3128 791.806 35.6948 791.451 36.3404H791.365V35.415H790.428V43.152ZM793.043 40.4887C791.989 40.4887 791.343 39.6601 791.343 38.3204V38.3097C791.343 36.9699 791.989 36.1413 793.043 36.1413C794.103 36.1413 794.733 36.9592 794.733 38.3097V38.3204C794.733 39.6709 794.103 40.4887 793.043 40.4887ZM797.766 41.2689C798.154 41.2689 798.466 40.9514 798.466 40.5694C798.466 40.182 798.154 39.87 797.766 39.87C797.384 39.87 797.067 40.182 797.067 40.5694C797.067 40.9514 797.384 41.2689 797.766 41.2689ZM802.387 41.3173C803.781 41.3173 804.561 40.5694 804.797 39.5203L804.808 39.4611L803.883 39.4664L803.872 39.4987C803.657 40.1444 803.162 40.4887 802.382 40.4887C801.349 40.4887 800.681 39.6332 800.681 38.2989V38.2881C800.681 36.9807 801.338 36.1413 802.382 36.1413C803.216 36.1413 803.732 36.6041 803.877 37.1744L803.883 37.1905H804.814L804.808 37.1582C804.636 36.1252 803.791 35.3128 802.382 35.3128C800.757 35.3128 799.724 36.4857 799.724 38.2881V38.2989C799.724 40.139 800.762 41.3173 802.387 41.3173ZM808.52 41.3173C810.171 41.3173 811.194 40.1767 811.194 38.3204V38.3097C811.194 36.448 810.171 35.3128 808.52 35.3128C806.868 35.3128 805.846 36.448 805.846 38.3097V38.3204C805.846 40.1767 806.868 41.3173 808.52 41.3173ZM808.52 40.4887C807.422 40.4887 806.803 39.687 806.803 38.3204V38.3097C806.803 36.9376 807.422 36.1413 808.52 36.1413C809.617 36.1413 810.236 36.9376 810.236 38.3097V38.3204C810.236 39.687 809.617 40.4887 808.52 40.4887ZM812.602 41.2151H813.539V37.621C813.539 36.8031 814.114 36.1413 814.873 36.1413C815.605 36.1413 816.078 36.5879 816.078 37.2766V41.2151H817.014V37.4865C817.014 36.7493 817.547 36.1413 818.354 36.1413C819.172 36.1413 819.565 36.5664 819.565 37.4219V41.2151H820.501V37.2067C820.501 35.9907 819.839 35.3128 818.655 35.3128C817.854 35.3128 817.192 35.7163 816.88 36.3297H816.794C816.525 35.7271 815.976 35.3128 815.19 35.3128C814.432 35.3128 813.883 35.6732 813.625 36.2974H813.539V35.415H812.602V41.2151Z" fill="#4C4C4C"/>
</g>
</g>
</g>
</g>
</g>
<g filter="url(#filter5_d_19_40)">
<path d="M110.312 261.135C110.312 238.417 128.729 220 151.447 220H342.719C365.437 220 383.854 238.417 383.854 261.135V344.187C385.866 344.187 387.497 345.818 387.497 347.83V392.868C387.497 394.88 385.866 396.511 383.854 396.511V740.521C383.854 763.24 365.437 781.657 342.719 781.657H151.447C128.729 781.657 110.312 763.24 110.312 740.521V420.024C108.494 420.024 107 418.551 107 416.733V378.939C107 377.121 108.494 375.648 110.312 375.648V367.369C108.494 367.369 107 365.895 107 364.078V324.959C107 323.141 108.494 321.668 110.312 321.668V261.135Z" fill="#EEEEEE"/>
</g>
<path d="M174.558 231.922H144.091C132.385 231.922 122.896 241.411 122.896 253.116V748.54C122.896 760.246 132.385 769.735 144.091 769.735H350.076C361.781 769.735 371.27 760.246 371.27 748.54V253.116C371.27 241.411 361.781 231.922 350.076 231.922H320.271V235.234C320.271 242.549 314.34 248.48 307.024 248.48H187.804C180.489 248.48 174.558 242.549 174.558 235.234V231.922Z" fill="white"/>
<rect opacity="0.4" x="221.583" y="231.922" width="56.9605" height="5.29865" rx="2.64932" fill="#CCCCCC"/>
<rect opacity="0.5" x="287.816" y="228.61" width="11.922" height="11.922" rx="5.96098" fill="#DDDDDD"/>
<rect opacity="0.5" x="290.466" y="231.26" width="6.62331" height="6.62331" rx="3.31166" fill="white"/>
<rect opacity="0.5" x="189.791" y="231.922" width="5.29865" height="5.29865" rx="2.64932" fill="#CCCCCC"/>
<defs>
<filter id="filter0_d_19_40" x="175.784" y="0.215441" width="1171.39" height="750.97" filterUnits="userSpaceOnUse" color-interpolation-filters="sRGB">
<feFlood flood-opacity="0" result="BackgroundImageFix"/>
<feColorMatrix in="SourceAlpha" type="matrix" values="0 0 0 0 0 0 0 0 0 0 0 0 0 0 0 0 0 0 127 0" result="hardAlpha"/>
<feMorphology radius="13.6473" operator="erode" in="SourceAlpha" result="effect1_dropShadow_19_40"/>
<feOffset dy="28.4318"/>
<feGaussianBlur stdDeviation="28.4318"/>
<feColorMatrix type="matrix" values="0 0 0 0 0 0 0 0 0 0 0 0 0 0 0 0 0 0 0.25 0"/>
<feBlend mode="normal" in2="BackgroundImageFix" result="effect1_dropShadow_19_40"/>
<feBlend mode="normal" in="SourceGraphic" in2="effect1_dropShadow_19_40" result="shape"/>
</filter>
<filter id="filter1_di_19_40" x="219" y="15" width="1084.96" height="45.3479" filterUnits="userSpaceOnUse" color-interpolation-filters="sRGB">
<feFlood flood-opacity="0" result="BackgroundImageFix"/>
<feColorMatrix in="SourceAlpha" type="matrix" values="0 0 0 0 0 0 0 0 0 0 0 0 0 0 0 0 0 0 127 0" result="hardAlpha"/>
<feOffset dy="0.423812"/>
<feColorMatrix type="matrix" values="0 0 0 0 0 0 0 0 0 0 0 0 0 0 0 0 0 0 0.15 0"/>
<feBlend mode="normal" in2="BackgroundImageFix" result="effect1_dropShadow_19_40"/>
<feBlend mode="normal" in="SourceGraphic" in2="effect1_dropShadow_19_40" result="shape"/>
<feColorMatrix in="SourceAlpha" type="matrix" values="0 0 0 0 0 0 0 0 0 0 0 0 0 0 0 0 0 0 127 0" result="hardAlpha"/>
<feOffset dy="-0.423812"/>
<feComposite in2="hardAlpha" operator="arithmetic" k2="-1" k3="1"/>
<feColorMatrix type="matrix" values="0 0 0 0 0 0 0 0 0 0 0 0 0 0 0 0 0 0 0.05 0"/>
<feBlend mode="normal" in2="shape" result="effect2_innerShadow_19_40"/>
</filter>
<filter id="filter2_i_19_40" x="236.8" y="31.9529" width="10.1714" height="10.1715" filterUnits="userSpaceOnUse" color-interpolation-filters="sRGB">
<feFlood flood-opacity="0" result="BackgroundImageFix"/>
<feBlend mode="normal" in="SourceGraphic" in2="BackgroundImageFix" result="shape"/>
<feColorMatrix in="SourceAlpha" type="matrix" values="0 0 0 0 0 0 0 0 0 0 0 0 0 0 0 0 0 0 127 0" result="hardAlpha"/>
<feOffset/>
<feGaussianBlur stdDeviation="2.54287"/>
<feComposite in2="hardAlpha" operator="arithmetic" k2="-1" k3="1"/>
<feColorMatrix type="matrix" values="0 0 0 0 0.92549 0 0 0 0 0.427451 0 0 0 0 0.384314 0 0 0 1 0"/>
<feBlend mode="normal" in2="shape" result="effect1_innerShadow_19_40"/>
</filter>
<filter id="filter3_i_19_40" x="253.753" y="31.9531" width="10.1714" height="10.1715" filterUnits="userSpaceOnUse" color-interpolation-filters="sRGB">
<feFlood flood-opacity="0" result="BackgroundImageFix"/>
<feBlend mode="normal" in="SourceGraphic" in2="BackgroundImageFix" result="shape"/>
<feColorMatrix in="SourceAlpha" type="matrix" values="0 0 0 0 0 0 0 0 0 0 0 0 0 0 0 0 0 0 127 0" result="hardAlpha"/>
<feOffset/>
<feGaussianBlur stdDeviation="2.54287"/>
<feComposite in2="hardAlpha" operator="arithmetic" k2="-1" k3="1"/>
<feColorMatrix type="matrix" values="0 0 0 0 0.960784 0 0 0 0 0.768627 0 0 0 0 0.317647 0 0 0 1 0"/>
<feBlend mode="normal" in2="shape" result="effect1_innerShadow_19_40"/>
</filter>
<filter id="filter4_i_19_40" x="270.705" y="31.9531" width="10.1714" height="10.1715" filterUnits="userSpaceOnUse" color-interpolation-filters="sRGB">
<feFlood flood-opacity="0" result="BackgroundImageFix"/>
<feBlend mode="normal" in="SourceGraphic" in2="BackgroundImageFix" result="shape"/>
<feColorMatrix in="SourceAlpha" type="matrix" values="0 0 0 0 0 0 0 0 0 0 0 0 0 0 0 0 0 0 127 0" result="hardAlpha"/>
<feOffset/>
<feGaussianBlur stdDeviation="2.54287"/>
<feComposite in2="hardAlpha" operator="arithmetic" k2="-1" k3="1"/>
<feColorMatrix type="matrix" values="0 0 0 0 0.407843 0 0 0 0 0.8 0 0 0 0 0.345098 0 0 0 1 0"/>
<feBlend mode="normal" in2="shape" result="effect1_innerShadow_19_40"/>
</filter>
<filter id="filter5_d_19_40" x="0.0479012" y="137.729" width="609.581" height="890.74" filterUnits="userSpaceOnUse" color-interpolation-filters="sRGB">
<feFlood flood-opacity="0" result="BackgroundImageFix"/>
<feColorMatrix in="SourceAlpha" type="matrix" values="0 0 0 0 0 0 0 0 0 0 0 0 0 0 0 0 0 0 127 0" result="hardAlpha"/>
<feOffset dx="57.5896" dy="82.2708"/>
<feGaussianBlur stdDeviation="82.2708"/>
<feColorMatrix type="matrix" values="0 0 0 0 0 0 0 0 0 0 0 0 0 0 0 0 0 0 0.17 0"/>
<feBlend mode="normal" in2="BackgroundImageFix" result="effect1_dropShadow_19_40"/>
<feBlend mode="normal" in="SourceGraphic" in2="effect1_dropShadow_19_40" result="shape"/>
</filter>
<clipPath id="clip0_19_40">
<rect x="219" y="15" width="1084.96" height="664.538" rx="8.47624" fill="white"/>
</clipPath>
<clipPath id="clip1_19_40">
<rect width="55.9432" height="23.7335" fill="white" transform="translate(332.582 25.1719)"/>
</clipPath>
<clipPath id="clip2_19_40">
<rect width="508.575" height="23.7335" fill="white" transform="translate(507.192 25.1719)"/>
</clipPath>
<clipPath id="clip3_19_40">
<rect x="701.599" y="30.215" width="119.762" height="13.6473" fill="white"/>
</clipPath>
</defs>
</svg>
