<svg width="63" height="24" viewBox="0 0 63 24" fill="none" xmlns="http://www.w3.org/2000/svg">
<path d="M21.4347 19V4.45455H30.7528V6.66335H24.0696V10.6122H30.1136V12.821H24.0696V19H21.4347ZM33.0398 19V8.09091H35.6108V19H33.0398ZM34.3324 6.54261C33.9252 6.54261 33.5748 6.40767 33.2812 6.13778C32.9877 5.86316 32.8409 5.53409 32.8409 5.15057C32.8409 4.76231 32.9877 4.43324 33.2812 4.16335C33.5748 3.88873 33.9252 3.75142 34.3324 3.75142C34.7443 3.75142 35.0947 3.88873 35.3835 4.16335C35.6771 4.43324 35.8239 4.76231 35.8239 5.15057C35.8239 5.53409 35.6771 5.86316 35.3835 6.13778C35.0947 6.40767 34.7443 6.54261 34.3324 6.54261ZM40.8256 12.608V19H38.2546V8.09091H40.712V9.9446H40.8398C41.0908 9.33381 41.4909 8.84848 42.0401 8.48864C42.5941 8.12879 43.2783 7.94886 44.0927 7.94886C44.8455 7.94886 45.5013 8.10985 46.06 8.43182C46.6235 8.75379 47.0591 9.22017 47.3668 9.83097C47.6793 10.4418 47.8332 11.1828 47.8285 12.054V19H45.2575V12.4517C45.2575 11.7225 45.0681 11.152 44.6893 10.7401C44.3152 10.3281 43.7968 10.1222 43.1339 10.1222C42.6841 10.1222 42.284 10.2216 41.9336 10.4205C41.5879 10.6146 41.3157 10.8963 41.1168 11.2656C40.9227 11.6349 40.8256 12.0824 40.8256 12.608ZM52.7575 4.45455L55.9606 9.78125H56.0742L59.2915 4.45455H62.2958L57.8143 11.7273L62.3668 19H59.3129L56.0742 13.7088H55.9606L52.7219 19H49.6822L54.2773 11.7273L49.739 4.45455H52.7575Z" fill="#18181B"/>
<circle cx="3.46154" cy="15.3846" r="3.46154" fill="#FF4236"/>
<circle cx="6.92296" cy="8.46154" r="3.46154" fill="#2FCC40"/>
<circle cx="11.5384" cy="14.2308" r="3.46154" fill="#FF4236"/>
</svg>
